<mxfile host="app.diagrams.net" modified="2022-03-01T13:36:25.056Z" agent="5.0 (Macintosh; Intel Mac OS X 10_15_7) AppleWebKit/537.36 (KHTML, like Gecko) Chrome/98.0.4758.109 Safari/537.36" etag="cLvDOtocBLDjqfcT33C9" version="16.6.4" type="github">
  <diagram id="km6wFf1AT1qebZHdLmL9" name="Page-1">
    <mxGraphModel dx="2061" dy="1913" grid="1" gridSize="10" guides="1" tooltips="1" connect="1" arrows="1" fold="1" page="1" pageScale="1" pageWidth="827" pageHeight="1169" math="0" shadow="0">
      <root>
        <mxCell id="0" />
        <mxCell id="1" parent="0" />
        <mxCell id="Y-z7CQoLXr54bBwh7zb3-25" style="edgeStyle=orthogonalEdgeStyle;rounded=0;orthogonalLoop=1;jettySize=auto;html=1;exitX=0.5;exitY=1;exitDx=0;exitDy=0;startArrow=none;startFill=0;" parent="1" source="euFUrrXmAUIV9GD4DxvM-6" target="Y-z7CQoLXr54bBwh7zb3-9" edge="1">
          <mxGeometry relative="1" as="geometry" />
        </mxCell>
        <mxCell id="Y-z7CQoLXr54bBwh7zb3-30" style="edgeStyle=orthogonalEdgeStyle;rounded=0;orthogonalLoop=1;jettySize=auto;html=1;exitX=0.5;exitY=1;exitDx=0;exitDy=0;entryX=0.5;entryY=0;entryDx=0;entryDy=0;startArrow=none;startFill=0;" parent="1" source="euFUrrXmAUIV9GD4DxvM-6" target="Y-z7CQoLXr54bBwh7zb3-11" edge="1">
          <mxGeometry relative="1" as="geometry" />
        </mxCell>
        <mxCell id="Y-z7CQoLXr54bBwh7zb3-31" style="edgeStyle=orthogonalEdgeStyle;rounded=0;orthogonalLoop=1;jettySize=auto;html=1;exitX=0.5;exitY=1;exitDx=0;exitDy=0;entryX=0.5;entryY=0;entryDx=0;entryDy=0;startArrow=none;startFill=0;dashed=1;" parent="1" source="euFUrrXmAUIV9GD4DxvM-6" target="Y-z7CQoLXr54bBwh7zb3-12" edge="1">
          <mxGeometry relative="1" as="geometry" />
        </mxCell>
        <mxCell id="euFUrrXmAUIV9GD4DxvM-6" value="" style="rounded=1;whiteSpace=wrap;html=1;fillColor=#f5f5f5;fontColor=#333333;strokeColor=#666666;" parent="1" vertex="1">
          <mxGeometry x="94" y="-836" width="180" height="330" as="geometry" />
        </mxCell>
        <mxCell id="Y-z7CQoLXr54bBwh7zb3-20" style="edgeStyle=orthogonalEdgeStyle;rounded=0;orthogonalLoop=1;jettySize=auto;html=1;exitX=0.5;exitY=1;exitDx=0;exitDy=0;entryX=0.5;entryY=0;entryDx=0;entryDy=0;" parent="1" source="euFUrrXmAUIV9GD4DxvM-1" target="euFUrrXmAUIV9GD4DxvM-6" edge="1">
          <mxGeometry relative="1" as="geometry" />
        </mxCell>
        <mxCell id="Y-z7CQoLXr54bBwh7zb3-21" style="edgeStyle=orthogonalEdgeStyle;rounded=0;orthogonalLoop=1;jettySize=auto;html=1;exitX=0.5;exitY=1;exitDx=0;exitDy=0;entryX=0.5;entryY=0;entryDx=0;entryDy=0;" parent="1" source="euFUrrXmAUIV9GD4DxvM-1" target="Y-z7CQoLXr54bBwh7zb3-1" edge="1">
          <mxGeometry relative="1" as="geometry" />
        </mxCell>
        <mxCell id="Y-z7CQoLXr54bBwh7zb3-22" style="edgeStyle=orthogonalEdgeStyle;rounded=0;orthogonalLoop=1;jettySize=auto;html=1;exitX=0.5;exitY=1;exitDx=0;exitDy=0;entryX=0.5;entryY=0;entryDx=0;entryDy=0;" parent="1" source="euFUrrXmAUIV9GD4DxvM-1" target="Y-z7CQoLXr54bBwh7zb3-5" edge="1">
          <mxGeometry relative="1" as="geometry" />
        </mxCell>
        <mxCell id="Y-z7CQoLXr54bBwh7zb3-24" style="edgeStyle=orthogonalEdgeStyle;rounded=0;orthogonalLoop=1;jettySize=auto;html=1;exitX=1;exitY=0.5;exitDx=0;exitDy=0;entryX=0;entryY=0.5;entryDx=0;entryDy=0;dashed=1;startArrow=classic;startFill=1;" parent="1" source="euFUrrXmAUIV9GD4DxvM-1" target="euFUrrXmAUIV9GD4DxvM-2" edge="1">
          <mxGeometry relative="1" as="geometry" />
        </mxCell>
        <mxCell id="euFUrrXmAUIV9GD4DxvM-1" value="nginx&lt;br&gt;（主）" style="rounded=1;whiteSpace=wrap;html=1;fillColor=#dae8fc;strokeColor=#6c8ebf;" parent="1" vertex="1">
          <mxGeometry x="234" y="-970" width="120" height="60" as="geometry" />
        </mxCell>
        <mxCell id="Y-z7CQoLXr54bBwh7zb3-23" style="edgeStyle=orthogonalEdgeStyle;rounded=0;orthogonalLoop=1;jettySize=auto;html=1;exitX=0.5;exitY=1;exitDx=0;exitDy=0;entryX=0.5;entryY=0;entryDx=0;entryDy=0;dashed=1;" parent="1" source="euFUrrXmAUIV9GD4DxvM-2" target="Y-z7CQoLXr54bBwh7zb3-1" edge="1">
          <mxGeometry relative="1" as="geometry" />
        </mxCell>
        <mxCell id="euFUrrXmAUIV9GD4DxvM-2" value="nginx&lt;br&gt;（从）" style="rounded=1;whiteSpace=wrap;html=1;fillColor=#dae8fc;strokeColor=#6c8ebf;" parent="1" vertex="1">
          <mxGeometry x="474" y="-970" width="120" height="60" as="geometry" />
        </mxCell>
        <mxCell id="euFUrrXmAUIV9GD4DxvM-3" value="应用层" style="rounded=1;whiteSpace=wrap;html=1;fillColor=#d5e8d4;strokeColor=#82b366;" parent="1" vertex="1">
          <mxGeometry x="124" y="-796" width="120" height="60" as="geometry" />
        </mxCell>
        <mxCell id="euFUrrXmAUIV9GD4DxvM-4" value="物联层" style="rounded=1;whiteSpace=wrap;html=1;fillColor=#d5e8d4;strokeColor=#82b366;" parent="1" vertex="1">
          <mxGeometry x="124" y="-696" width="120" height="60" as="geometry" />
        </mxCell>
        <mxCell id="euFUrrXmAUIV9GD4DxvM-5" value="接入层" style="rounded=1;whiteSpace=wrap;html=1;fillColor=#d5e8d4;strokeColor=#82b366;" parent="1" vertex="1">
          <mxGeometry x="124" y="-596" width="120" height="60" as="geometry" />
        </mxCell>
        <mxCell id="Y-z7CQoLXr54bBwh7zb3-26" style="edgeStyle=orthogonalEdgeStyle;rounded=0;orthogonalLoop=1;jettySize=auto;html=1;exitX=0.5;exitY=1;exitDx=0;exitDy=0;entryX=0.5;entryY=0;entryDx=0;entryDy=0;startArrow=none;startFill=0;" parent="1" source="Y-z7CQoLXr54bBwh7zb3-1" target="Y-z7CQoLXr54bBwh7zb3-9" edge="1">
          <mxGeometry relative="1" as="geometry" />
        </mxCell>
        <mxCell id="Y-z7CQoLXr54bBwh7zb3-29" style="edgeStyle=orthogonalEdgeStyle;rounded=0;orthogonalLoop=1;jettySize=auto;html=1;exitX=0.5;exitY=1;exitDx=0;exitDy=0;entryX=0.5;entryY=0;entryDx=0;entryDy=0;startArrow=none;startFill=0;dashed=1;" parent="1" source="Y-z7CQoLXr54bBwh7zb3-1" target="Y-z7CQoLXr54bBwh7zb3-10" edge="1">
          <mxGeometry relative="1" as="geometry" />
        </mxCell>
        <mxCell id="Y-z7CQoLXr54bBwh7zb3-1" value="" style="rounded=1;whiteSpace=wrap;html=1;fillColor=#f5f5f5;fontColor=#333333;strokeColor=#666666;" parent="1" vertex="1">
          <mxGeometry x="324" y="-836" width="180" height="330" as="geometry" />
        </mxCell>
        <mxCell id="Y-z7CQoLXr54bBwh7zb3-2" value="应用层" style="rounded=1;whiteSpace=wrap;html=1;fillColor=#d5e8d4;strokeColor=#82b366;" parent="1" vertex="1">
          <mxGeometry x="354" y="-796" width="120" height="60" as="geometry" />
        </mxCell>
        <mxCell id="Y-z7CQoLXr54bBwh7zb3-3" value="物联层" style="rounded=1;whiteSpace=wrap;html=1;fillColor=#d5e8d4;strokeColor=#82b366;" parent="1" vertex="1">
          <mxGeometry x="354" y="-696" width="120" height="60" as="geometry" />
        </mxCell>
        <mxCell id="Y-z7CQoLXr54bBwh7zb3-4" value="接入层" style="rounded=1;whiteSpace=wrap;html=1;fillColor=#d5e8d4;strokeColor=#82b366;" parent="1" vertex="1">
          <mxGeometry x="354" y="-596" width="120" height="60" as="geometry" />
        </mxCell>
        <mxCell id="Y-z7CQoLXr54bBwh7zb3-28" style="edgeStyle=orthogonalEdgeStyle;rounded=0;orthogonalLoop=1;jettySize=auto;html=1;exitX=0.5;exitY=1;exitDx=0;exitDy=0;entryX=0.5;entryY=0;entryDx=0;entryDy=0;startArrow=none;startFill=0;" parent="1" source="Y-z7CQoLXr54bBwh7zb3-5" target="Y-z7CQoLXr54bBwh7zb3-9" edge="1">
          <mxGeometry relative="1" as="geometry" />
        </mxCell>
        <mxCell id="Y-z7CQoLXr54bBwh7zb3-5" value="" style="rounded=1;whiteSpace=wrap;html=1;fillColor=#f5f5f5;fontColor=#333333;strokeColor=#666666;" parent="1" vertex="1">
          <mxGeometry x="554" y="-836" width="180" height="330" as="geometry" />
        </mxCell>
        <mxCell id="Y-z7CQoLXr54bBwh7zb3-6" value="应用层" style="rounded=1;whiteSpace=wrap;html=1;fillColor=#d5e8d4;strokeColor=#82b366;" parent="1" vertex="1">
          <mxGeometry x="584" y="-796" width="120" height="60" as="geometry" />
        </mxCell>
        <mxCell id="Y-z7CQoLXr54bBwh7zb3-7" value="物联层" style="rounded=1;whiteSpace=wrap;html=1;fillColor=#d5e8d4;strokeColor=#82b366;" parent="1" vertex="1">
          <mxGeometry x="584" y="-696" width="120" height="60" as="geometry" />
        </mxCell>
        <mxCell id="Y-z7CQoLXr54bBwh7zb3-8" value="接入层" style="rounded=1;whiteSpace=wrap;html=1;fillColor=#d5e8d4;strokeColor=#82b366;" parent="1" vertex="1">
          <mxGeometry x="584" y="-596" width="120" height="60" as="geometry" />
        </mxCell>
        <mxCell id="Y-z7CQoLXr54bBwh7zb3-32" style="edgeStyle=orthogonalEdgeStyle;rounded=0;orthogonalLoop=1;jettySize=auto;html=1;exitX=1;exitY=0.5;exitDx=0;exitDy=0;entryX=0;entryY=0.5;entryDx=0;entryDy=0;dashed=1;startArrow=classic;startFill=1;" parent="1" source="Y-z7CQoLXr54bBwh7zb3-9" target="Y-z7CQoLXr54bBwh7zb3-10" edge="1">
          <mxGeometry relative="1" as="geometry" />
        </mxCell>
        <mxCell id="Y-z7CQoLXr54bBwh7zb3-9" value="redis&lt;br&gt;（主）" style="rounded=1;whiteSpace=wrap;html=1;fillColor=#fff2cc;strokeColor=#d6b656;" parent="1" vertex="1">
          <mxGeometry x="99" y="-420" width="120" height="60" as="geometry" />
        </mxCell>
        <mxCell id="Y-z7CQoLXr54bBwh7zb3-10" value="redis&lt;br&gt;（从）" style="rounded=1;whiteSpace=wrap;html=1;fillColor=#fff2cc;strokeColor=#d6b656;" parent="1" vertex="1">
          <mxGeometry x="269" y="-420" width="120" height="60" as="geometry" />
        </mxCell>
        <mxCell id="Y-z7CQoLXr54bBwh7zb3-33" style="edgeStyle=orthogonalEdgeStyle;rounded=0;orthogonalLoop=1;jettySize=auto;html=1;exitX=1;exitY=0.5;exitDx=0;exitDy=0;entryX=0;entryY=0.5;entryDx=0;entryDy=0;dashed=1;startArrow=classic;startFill=1;" parent="1" source="Y-z7CQoLXr54bBwh7zb3-11" target="Y-z7CQoLXr54bBwh7zb3-12" edge="1">
          <mxGeometry relative="1" as="geometry" />
        </mxCell>
        <mxCell id="Y-z7CQoLXr54bBwh7zb3-11" value="mysql&lt;br&gt;（主）" style="rounded=1;whiteSpace=wrap;html=1;fillColor=#f8cecc;strokeColor=#b85450;" parent="1" vertex="1">
          <mxGeometry x="439" y="-420" width="120" height="60" as="geometry" />
        </mxCell>
        <mxCell id="Y-z7CQoLXr54bBwh7zb3-12" value="mysql&lt;br&gt;（从）" style="rounded=1;whiteSpace=wrap;html=1;fillColor=#f8cecc;strokeColor=#b85450;" parent="1" vertex="1">
          <mxGeometry x="609" y="-420" width="120" height="60" as="geometry" />
        </mxCell>
        <mxCell id="Y-z7CQoLXr54bBwh7zb3-44" style="edgeStyle=orthogonalEdgeStyle;rounded=0;orthogonalLoop=1;jettySize=auto;html=1;exitX=1;exitY=0.5;exitDx=0;exitDy=0;startArrow=classic;startFill=1;" parent="1" source="Y-z7CQoLXr54bBwh7zb3-13" target="Y-z7CQoLXr54bBwh7zb3-18" edge="1">
          <mxGeometry relative="1" as="geometry" />
        </mxCell>
        <mxCell id="Y-z7CQoLXr54bBwh7zb3-13" value="nacos&lt;br&gt;（主）" style="rounded=1;whiteSpace=wrap;html=1;fillColor=#ffe6cc;strokeColor=#d79b00;" parent="1" vertex="1">
          <mxGeometry x="-80" y="-834" width="80" height="336" as="geometry" />
        </mxCell>
        <mxCell id="Y-z7CQoLXr54bBwh7zb3-43" style="edgeStyle=orthogonalEdgeStyle;rounded=0;orthogonalLoop=1;jettySize=auto;html=1;exitX=1;exitY=0.5;exitDx=0;exitDy=0;startArrow=classic;startFill=1;dashed=1;entryX=0;entryY=0.5;entryDx=0;entryDy=0;" parent="1" source="Y-z7CQoLXr54bBwh7zb3-16" target="emlIaIFZVXrYUNUMLstC-5" edge="1">
          <mxGeometry relative="1" as="geometry">
            <mxPoint x="1130" y="-668" as="targetPoint" />
          </mxGeometry>
        </mxCell>
        <mxCell id="Y-z7CQoLXr54bBwh7zb3-16" value="" style="rounded=1;whiteSpace=wrap;html=1;fillColor=#f5f5f5;strokeColor=#666666;fontColor=#333333;" parent="1" vertex="1">
          <mxGeometry x="840" y="-836" width="140" height="336" as="geometry" />
        </mxCell>
        <mxCell id="Y-z7CQoLXr54bBwh7zb3-38" style="edgeStyle=orthogonalEdgeStyle;rounded=0;orthogonalLoop=1;jettySize=auto;html=1;exitX=1;exitY=0.5;exitDx=0;exitDy=0;startArrow=classic;startFill=1;" parent="1" source="Y-z7CQoLXr54bBwh7zb3-17" target="Y-z7CQoLXr54bBwh7zb3-16" edge="1">
          <mxGeometry relative="1" as="geometry" />
        </mxCell>
        <mxCell id="Y-z7CQoLXr54bBwh7zb3-45" style="edgeStyle=orthogonalEdgeStyle;rounded=0;orthogonalLoop=1;jettySize=auto;html=1;exitX=0;exitY=0.5;exitDx=0;exitDy=0;entryX=1;entryY=0.5;entryDx=0;entryDy=0;startArrow=classic;startFill=1;" parent="1" source="Y-z7CQoLXr54bBwh7zb3-17" target="Y-z7CQoLXr54bBwh7zb3-13" edge="1">
          <mxGeometry relative="1" as="geometry" />
        </mxCell>
        <mxCell id="Y-z7CQoLXr54bBwh7zb3-17" value="" style="rounded=1;whiteSpace=wrap;html=1;fillColor=none;dashed=1;" parent="1" vertex="1">
          <mxGeometry x="79" y="-806" width="670" height="80" as="geometry" />
        </mxCell>
        <mxCell id="Y-z7CQoLXr54bBwh7zb3-39" style="edgeStyle=orthogonalEdgeStyle;rounded=0;orthogonalLoop=1;jettySize=auto;html=1;exitX=1;exitY=0.5;exitDx=0;exitDy=0;startArrow=classic;startFill=1;" parent="1" source="Y-z7CQoLXr54bBwh7zb3-18" target="Y-z7CQoLXr54bBwh7zb3-16" edge="1">
          <mxGeometry relative="1" as="geometry" />
        </mxCell>
        <mxCell id="Y-z7CQoLXr54bBwh7zb3-18" value="" style="rounded=1;whiteSpace=wrap;html=1;fillColor=none;dashed=1;" parent="1" vertex="1">
          <mxGeometry x="79" y="-706" width="670" height="80" as="geometry" />
        </mxCell>
        <mxCell id="Y-z7CQoLXr54bBwh7zb3-41" style="edgeStyle=orthogonalEdgeStyle;rounded=0;orthogonalLoop=1;jettySize=auto;html=1;exitX=1;exitY=0.5;exitDx=0;exitDy=0;entryX=0;entryY=0.5;entryDx=0;entryDy=0;startArrow=classic;startFill=1;" parent="1" source="Y-z7CQoLXr54bBwh7zb3-19" target="Y-z7CQoLXr54bBwh7zb3-16" edge="1">
          <mxGeometry relative="1" as="geometry" />
        </mxCell>
        <mxCell id="Y-z7CQoLXr54bBwh7zb3-47" style="edgeStyle=orthogonalEdgeStyle;rounded=0;orthogonalLoop=1;jettySize=auto;html=1;exitX=0;exitY=0.5;exitDx=0;exitDy=0;entryX=1;entryY=0.5;entryDx=0;entryDy=0;startArrow=classic;startFill=1;" parent="1" source="Y-z7CQoLXr54bBwh7zb3-19" target="Y-z7CQoLXr54bBwh7zb3-13" edge="1">
          <mxGeometry relative="1" as="geometry" />
        </mxCell>
        <mxCell id="Y-z7CQoLXr54bBwh7zb3-19" value="" style="rounded=1;whiteSpace=wrap;html=1;fillColor=none;dashed=1;" parent="1" vertex="1">
          <mxGeometry x="79" y="-606" width="670" height="80" as="geometry" />
        </mxCell>
        <mxCell id="Y-z7CQoLXr54bBwh7zb3-49" style="edgeStyle=orthogonalEdgeStyle;rounded=0;orthogonalLoop=1;jettySize=auto;html=1;exitX=1;exitY=0.5;exitDx=0;exitDy=0;entryX=0;entryY=0.5;entryDx=0;entryDy=0;startArrow=classic;startFill=1;dashed=1;" parent="1" source="Y-z7CQoLXr54bBwh7zb3-48" target="Y-z7CQoLXr54bBwh7zb3-13" edge="1">
          <mxGeometry relative="1" as="geometry" />
        </mxCell>
        <mxCell id="Y-z7CQoLXr54bBwh7zb3-48" value="nacos&lt;br&gt;（从）" style="rounded=1;whiteSpace=wrap;html=1;fillColor=#ffe6cc;strokeColor=#d79b00;" parent="1" vertex="1">
          <mxGeometry x="-200" y="-834" width="80" height="336" as="geometry" />
        </mxCell>
        <mxCell id="Y-z7CQoLXr54bBwh7zb3-50" value="应用服务器1" style="text;html=1;align=center;verticalAlign=middle;resizable=0;points=[];autosize=1;strokeColor=none;fillColor=none;" parent="1" vertex="1">
          <mxGeometry x="144" y="-826" width="80" height="20" as="geometry" />
        </mxCell>
        <mxCell id="Y-z7CQoLXr54bBwh7zb3-51" value="应用服务器3" style="text;html=1;align=center;verticalAlign=middle;resizable=0;points=[];autosize=1;strokeColor=none;fillColor=none;" parent="1" vertex="1">
          <mxGeometry x="604" y="-826" width="80" height="20" as="geometry" />
        </mxCell>
        <mxCell id="Y-z7CQoLXr54bBwh7zb3-52" value="应用服务器2" style="text;html=1;align=center;verticalAlign=middle;resizable=0;points=[];autosize=1;strokeColor=none;fillColor=none;" parent="1" vertex="1">
          <mxGeometry x="374" y="-826" width="80" height="20" as="geometry" />
        </mxCell>
        <mxCell id="Y-z7CQoLXr54bBwh7zb3-54" style="edgeStyle=orthogonalEdgeStyle;rounded=0;orthogonalLoop=1;jettySize=auto;html=1;exitX=1;exitY=0.5;exitDx=0;exitDy=0;entryX=0;entryY=0.5;entryDx=0;entryDy=0;startArrow=none;startFill=0;" parent="1" source="Y-z7CQoLXr54bBwh7zb3-53" target="euFUrrXmAUIV9GD4DxvM-1" edge="1">
          <mxGeometry relative="1" as="geometry" />
        </mxCell>
        <mxCell id="Y-z7CQoLXr54bBwh7zb3-53" value="静态页面" style="ellipse;whiteSpace=wrap;html=1;aspect=fixed;fillColor=#f8cecc;strokeColor=#b85450;" parent="1" vertex="1">
          <mxGeometry x="100" y="-980" width="80" height="80" as="geometry" />
        </mxCell>
        <mxCell id="Y-z7CQoLXr54bBwh7zb3-56" style="edgeStyle=orthogonalEdgeStyle;rounded=0;orthogonalLoop=1;jettySize=auto;html=1;exitX=0;exitY=0.5;exitDx=0;exitDy=0;entryX=1;entryY=0.5;entryDx=0;entryDy=0;startArrow=none;startFill=0;" parent="1" source="Y-z7CQoLXr54bBwh7zb3-55" target="euFUrrXmAUIV9GD4DxvM-2" edge="1">
          <mxGeometry relative="1" as="geometry" />
        </mxCell>
        <mxCell id="Y-z7CQoLXr54bBwh7zb3-55" value="静态页面" style="ellipse;whiteSpace=wrap;html=1;aspect=fixed;fillColor=#f8cecc;strokeColor=#b85450;" parent="1" vertex="1">
          <mxGeometry x="654" y="-980" width="80" height="80" as="geometry" />
        </mxCell>
        <mxCell id="Y-z7CQoLXr54bBwh7zb3-57" value="1.动静分离&lt;br&gt;2.负载均衡&lt;br&gt;3.主备架构" style="text;html=1;align=center;verticalAlign=middle;resizable=0;points=[];autosize=1;strokeColor=none;fillColor=none;" parent="1" vertex="1">
          <mxGeometry x="379" y="-1000" width="70" height="50" as="geometry" />
        </mxCell>
        <mxCell id="emlIaIFZVXrYUNUMLstC-1" value="NameServer" style="rounded=1;whiteSpace=wrap;html=1;" vertex="1" parent="1">
          <mxGeometry x="850" y="-780" width="120" height="60" as="geometry" />
        </mxCell>
        <mxCell id="emlIaIFZVXrYUNUMLstC-2" value="Master-Broker-A" style="rounded=1;whiteSpace=wrap;html=1;" vertex="1" parent="1">
          <mxGeometry x="850" y="-686" width="120" height="60" as="geometry" />
        </mxCell>
        <mxCell id="emlIaIFZVXrYUNUMLstC-3" value="Slave-Broker-B" style="rounded=1;whiteSpace=wrap;html=1;" vertex="1" parent="1">
          <mxGeometry x="850" y="-596" width="120" height="60" as="geometry" />
        </mxCell>
        <mxCell id="emlIaIFZVXrYUNUMLstC-4" value="RocketMQ" style="text;html=1;strokeColor=none;fillColor=none;align=center;verticalAlign=middle;whiteSpace=wrap;rounded=0;" vertex="1" parent="1">
          <mxGeometry x="880" y="-826" width="60" height="30" as="geometry" />
        </mxCell>
        <mxCell id="emlIaIFZVXrYUNUMLstC-5" value="" style="rounded=1;whiteSpace=wrap;html=1;fillColor=#f5f5f5;strokeColor=#666666;fontColor=#333333;" vertex="1" parent="1">
          <mxGeometry x="1040" y="-836" width="140" height="336" as="geometry" />
        </mxCell>
        <mxCell id="emlIaIFZVXrYUNUMLstC-6" value="NameServer" style="rounded=1;whiteSpace=wrap;html=1;" vertex="1" parent="1">
          <mxGeometry x="1050" y="-780" width="120" height="60" as="geometry" />
        </mxCell>
        <mxCell id="emlIaIFZVXrYUNUMLstC-7" value="Master-Broker-B" style="rounded=1;whiteSpace=wrap;html=1;" vertex="1" parent="1">
          <mxGeometry x="1050" y="-686" width="120" height="60" as="geometry" />
        </mxCell>
        <mxCell id="emlIaIFZVXrYUNUMLstC-8" value="Slave-Broker-A" style="rounded=1;whiteSpace=wrap;html=1;" vertex="1" parent="1">
          <mxGeometry x="1050" y="-596" width="120" height="60" as="geometry" />
        </mxCell>
        <mxCell id="emlIaIFZVXrYUNUMLstC-9" value="RocketMQ" style="text;html=1;strokeColor=none;fillColor=none;align=center;verticalAlign=middle;whiteSpace=wrap;rounded=0;" vertex="1" parent="1">
          <mxGeometry x="1080" y="-826" width="60" height="30" as="geometry" />
        </mxCell>
      </root>
    </mxGraphModel>
  </diagram>
</mxfile>
